<svg xmlns="http://www.w3.org/2000/svg" width="0" height="0" class="hidden">
  <defs>
    <symbol id="run" viewBox="0 0 24 25" fill="none">
      <path vector-effect="non-scaling-stroke" d="M4 17.2637L9 18.2637L9.75 16.7637M15 21.2637V17.2637L11 14.2637L12 8.26367M12 8.26367L7 9.26367V12.2637M12 8.26367L15 11.2637L18 12.2637M12 4.26367C12 4.52889 12.1054 4.78324 12.2929 4.97078C12.4804 5.15831 12.7348 5.26367 13 5.26367C13.2652 5.26367 13.5196 5.15831 13.7071 4.97078C13.8946 4.78324 14 4.52889 14 4.26367C14 3.99846 13.8946 3.7441 13.7071 3.55657C13.5196 3.36903 13.2652 3.26367 13 3.26367C12.7348 3.26367 12.4804 3.36903 12.2929 3.55657C12.1054 3.7441 12 3.99846 12 4.26367Z" stroke="currentColor" stroke-linecap="round" stroke-linejoin="round"/>
    </symbol>
    <symbol id="video" viewBox="0 0 24 25" fill="none">
      <path vector-effect="non-scaling-stroke" d="M7 20.2637H17M9 16.2637V20.2637M15 16.2637V20.2637M3 5.26367C3 4.99846 3.10536 4.7441 3.29289 4.55657C3.48043 4.36903 3.73478 4.26367 4 4.26367H20C20.2652 4.26367 20.5196 4.36903 20.7071 4.55657C20.8946 4.7441 21 4.99846 21 5.26367V15.2637C21 15.5289 20.8946 15.7832 20.7071 15.9708C20.5196 16.1583 20.2652 16.2637 20 16.2637H4C3.73478 16.2637 3.48043 16.1583 3.29289 15.9708C3.10536 15.7832 3 15.5289 3 15.2637V5.26367Z" stroke="currentColor" stroke-linecap="round" stroke-linejoin="round"/>
      <path vector-effect="non-scaling-stroke" d="M9.7031 6.93262L15.0937 10.0449L9.7031 13.1572L9.7031 6.93262Z" fill="currentColor"/>
    </symbol>
    <symbol id="boy" viewBox="0 0 24 25" fill="none">
      <path vector-effect="non-scaling-stroke" d="M16.9999 4.76367C18.007 5.43516 18.8682 6.30288 19.5321 7.31492C20.1961 8.32696 20.649 9.46252 20.8639 10.6537C21.2381 10.8956 21.5409 11.2333 21.7408 11.6315C21.9407 12.0298 22.0305 12.4743 22.001 12.9189C21.9714 13.3636 21.8235 13.7923 21.5726 14.1606C21.3217 14.5289 20.9769 14.8234 20.5739 15.0137C19.991 16.8279 18.8472 18.4103 17.3073 19.5329C15.7675 20.6555 13.911 21.2603 12.0054 21.2603C10.0998 21.2603 8.24339 20.6555 6.70354 19.5329C5.16369 18.4103 4.0199 16.8279 3.43693 15.0137C3.03396 14.8234 2.68918 14.5289 2.43828 14.1606C2.18738 13.7923 2.03948 13.3636 2.00991 12.9189C1.98033 12.4743 2.07015 12.0298 2.27006 11.6315C2.46997 11.2333 2.77271 10.8956 3.14693 10.6537C3.35757 9.48614 3.79697 8.37177 4.43985 7.37467C5.08273 6.37757 5.91641 5.51741 6.89293 4.84367M9.49993 16.2637C9.82581 16.5963 10.2148 16.8605 10.6441 17.0409C11.0733 17.2213 11.5343 17.3142 11.9999 17.3142C12.4656 17.3142 12.9265 17.2213 13.3558 17.0409C13.7851 16.8605 14.1741 16.5963 14.4999 16.2637M8.49993 2.26367C9.99993 3.26367 10.9999 5.76367 10.9999 7.26367M12.4999 2.26367C13.9999 4.26367 14.4999 5.76367 14.4999 7.26367M8.99993 12.2637H9.00993M14.9999 12.2637H15.0099" stroke="currentColor" stroke-linecap="round" stroke-linejoin="round"/>
    </symbol>
    <symbol id="reload" viewBox="0 0 24 25" fill="none">
      <path vector-effect="non-scaling-stroke" d="M19.9331 13.3047C19.7442 14.7446 19.167 16.106 18.2632 17.2428C17.3595 18.3797 16.1633 19.249 14.803 19.7577C13.4427 20.2664 11.9696 20.3952 10.5417 20.1302C9.1138 19.8653 7.78492 19.2167 6.69761 18.254C5.6103 17.2912 4.80557 16.0507 4.36973 14.6653C3.93389 13.28 3.88338 11.8021 4.22362 10.3903C4.56385 8.97839 5.282 7.68577 6.30104 6.65103C7.32007 5.61628 8.60156 4.87846 10.0081 4.51667C13.9071 3.51667 17.9431 5.52367 19.4331 9.26367M20.0001 4.26367V9.26367H15.0001" stroke="currentColor" stroke-linecap="round" stroke-linejoin="round"/>
    </symbol>
    <symbol id="award" viewBox="0 0 24 25" fill="none">
      <path vector-effect="non-scaling-stroke" d="M12.0001 15.2637C10.4088 15.2637 8.88268 14.6315 7.75746 13.5063C6.63224 12.3811 6.0001 10.855 6.0001 9.26367C6.0001 7.67237 6.63224 6.14625 7.75746 5.02103C8.88268 3.89581 10.4088 3.26367 12.0001 3.26367C13.5914 3.26367 15.1175 3.89581 16.2427 5.02103C17.368 6.14625 18.0001 7.67237 18.0001 9.26367C18.0001 10.855 17.368 12.3811 16.2427 13.5063C15.1175 14.6315 13.5914 15.2637 12.0001 15.2637ZM12.0001 15.2637L15.4001 21.1537L16.9981 17.9207L20.5961 18.1527L17.1961 12.2637M6.8021 12.2637L3.4021 18.1537L7.0001 17.9207L8.5981 21.1527L11.9981 15.2637" stroke="currentColor" stroke-linecap="round" stroke-linejoin="round"/>
    </symbol>
    <symbol id="ciack" viewBox="0 0 24 25" fill="none">
      <path vector-effect="non-scaling-stroke" d="M4.28229 8.30349L18.4592 4.5048L19.1834 7.2074L15.6172 8.16295L12.3916 9.02724L9.16603 9.89153L7.67449 10.2912L7.61091 10.3082L5.66593 10.8294L5.00645 11.0061L4.28229 8.30349ZM7.80615 11.2912H19.8299V14.5891V20.1349H5.1529V14.5891L5.1529 12.0021L5.92475 11.7953L7.80615 11.2912Z" stroke="currentColor"/>
    </symbol>
    <symbol id="certificate" viewBox="0 0 24 25" fill="none">
      <path vector-effect="non-scaling-stroke" d="M14 3.26367V7.26367C14 7.52889 14.1054 7.78324 14.2929 7.97078C14.4804 8.15831 14.7348 8.26367 15 8.26367H19M14 3.26367H7C6.46957 3.26367 5.96086 3.47439 5.58579 3.84946C5.21071 4.22453 5 4.73324 5 5.26367V8.26367M14 3.26367L19 8.26367M19 8.26367V19.2637C19 19.7941 18.7893 20.3028 18.4142 20.6779C18.0391 21.053 17.5304 21.2637 17 21.2637H12M4.5 17.2637L3 22.2637L6 20.7637L9 22.2637L7.5 17.2637M3 14.2637C3 15.0593 3.31607 15.8224 3.87868 16.385C4.44129 16.9476 5.20435 17.2637 6 17.2637C6.79565 17.2637 7.55871 16.9476 8.12132 16.385C8.68393 15.8224 9 15.0593 9 14.2637C9 13.468 8.68393 12.705 8.12132 12.1424C7.55871 11.5797 6.79565 11.2637 6 11.2637C5.20435 11.2637 4.44129 11.5797 3.87868 12.1424C3.31607 12.705 3 13.468 3 14.2637Z" stroke="currentColor" stroke-linecap="round" stroke-linejoin="round"/>
    </symbol>
    <symbol id="movie" viewBox="0 0 24 25" fill="none">
      <path vector-effect="non-scaling-stroke" d="M8 6.57617V17.9512M16 6.57617V17.9512M4 9.41992H8M4 15.1074H8M4 12.2637H20M16 9.41992H20M16 15.1074H20M4 7.99805C4 7.62094 4.21071 7.25928 4.58579 6.99263C4.96086 6.72598 5.46957 6.57617 6 6.57617H18C18.5304 6.57617 19.0391 6.72598 19.4142 6.99263C19.7893 7.25928 20 7.62094 20 7.99805V16.5293C20 16.9064 19.7893 17.2681 19.4142 17.5347C19.0391 17.8014 18.5304 17.9512 18 17.9512H6C5.46957 17.9512 4.96086 17.8014 4.58579 17.5347C4.21071 17.2681 4 16.9064 4 16.5293V7.99805Z" stroke="currentColor" stroke-linecap="round" stroke-linejoin="round"/>
    </symbol>
    <symbol id="asterisk" viewBox="0 0 24 25" fill="none">
      <path vector-effect="non-scaling-stroke" d="M12 12.2637L20 7.76367M12 12.2637V21.2637M12 12.2637L4 7.76367M12 12.2637L20 16.7637M12 12.2637V3.26367M12 12.2637L4 16.7637" stroke="currentColor" stroke-linecap="round" stroke-linejoin="round"/>
    </symbol>
    <symbol id="phone" viewBox="0 0 24 25" fill="none">
      <path vector-effect="non-scaling-stroke" d="M15 6.26367L17 8.26367L21 4.26367M5 4.26367H9L11 9.26367L8.5 10.7637C9.57096 12.9352 11.3285 14.6927 13.5 15.7637L15 13.2637L20 15.2637V19.2637C20 19.7941 19.7893 20.3028 19.4142 20.6779C19.0391 21.053 18.5304 21.2637 18 21.2637C14.0993 21.0266 10.4202 19.3702 7.65683 16.6068C4.8935 13.8435 3.23705 10.1644 3 6.26367C3 5.73324 3.21071 5.22453 3.58579 4.84946C3.96086 4.47439 4.46957 4.26367 5 4.26367Z" stroke="currentColor" stroke-linecap="round" stroke-linejoin="round"/>
    </symbol>
    <symbol id="infinite" viewBox="0 0 24 25" fill="none">
      <path vector-effect="non-scaling-stroke" d="M10.3333 10.6565L8.48809 8.98985C8.17063 8.71207 7.81349 8.49382 7.41666 8.33509C7.01984 8.17636 6.60317 8.09699 6.16666 8.09699C5.01587 8.09699 4.03373 8.50374 3.22024 9.31723C2.40675 10.1307 2 11.1129 2 12.2637C2 13.4145 2.40675 14.3966 3.22024 15.2101C4.03373 16.0236 5.01587 16.4303 6.16666 16.4303C6.60317 16.4303 7.01984 16.351 7.41666 16.1922C7.81349 16.0335 8.17063 15.8152 8.48809 15.5375L15.5119 8.98985C15.8294 8.71207 16.1865 8.49382 16.5833 8.33509C16.9802 8.17636 17.3968 8.09699 17.8333 8.09699C18.9841 8.09699 19.9663 8.50374 20.7798 9.31723C21.5933 10.1307 22 11.1129 22 12.2637C22 13.4145 21.5933 14.3966 20.7798 15.2101C19.9663 16.0236 18.9841 16.4303 17.8333 16.4303C17.3968 16.4303 16.9802 16.351 16.5833 16.1922C16.1865 16.0335 15.8294 15.8152 15.5119 15.5375L13.6667 13.8708" stroke="currentColor"/>
    </symbol>
    <symbol id="heart-monitor" viewBox="0 0 24 25" fill="none">
      <path vector-effect="non-scaling-stroke" d="M7 20.2637H17M9 16.2637V20.2637M15 16.2637V20.2637M3 5.26367C3 4.99846 3.10536 4.7441 3.29289 4.55657C3.48043 4.36903 3.73478 4.26367 4 4.26367H20C20.2652 4.26367 20.5196 4.36903 20.7071 4.55657C20.8946 4.7441 21 4.99846 21 5.26367V15.2637C21 15.5289 20.8946 15.7832 20.7071 15.9708C20.5196 16.1583 20.2652 16.2637 20 16.2637H4C3.73478 16.2637 3.48043 16.1583 3.29289 15.9708C3.10536 15.7832 3 15.5289 3 15.2637V5.26367Z" stroke="currentColor" stroke-linecap="round" stroke-linejoin="round"/>
      <path vector-effect="non-scaling-stroke" d="M7 10.2637H9L11 13.2637L13 7.26367L14 10.2637H17" stroke="currentColor" stroke-linecap="round" stroke-linejoin="round"/>
    </symbol>
    <symbol id="video" viewBox="0 0 24 25" fill="none">
      <path vector-effect="non-scaling-stroke" d="M7 20.2637H17M9 16.2637V20.2637M15 16.2637V20.2637M3 5.26367C3 4.99846 3.10536 4.7441 3.29289 4.55657C3.48043 4.36903 3.73478 4.26367 4 4.26367H20C20.2652 4.26367 20.5196 4.36903 20.7071 4.55657C20.8946 4.7441 21 4.99846 21 5.26367V15.2637C21 15.5289 20.8946 15.7832 20.7071 15.9708C20.5196 16.1583 20.2652 16.2637 20 16.2637H4C3.73478 16.2637 3.48043 16.1583 3.29289 15.9708C3.10536 15.7832 3 15.5289 3 15.2637V5.26367Z" stroke="currentColor" stroke-linecap="round" stroke-linejoin="round"/>
      <path vector-effect="non-scaling-stroke" d="M9.7031 6.93262L15.0937 10.0449L9.7031 13.1572L9.7031 6.93262Z" fill="currentColor"/>
    </symbol>
    <symbol id="mobile" viewBox="0 0 24 25" fill="none">
      <path vector-effect="non-scaling-stroke" d="M11 4.26367H13M12 17.2637V17.2737M6 5.26367C6 4.73324 6.21071 4.22453 6.58579 3.84946C6.96086 3.47439 7.46957 3.26367 8 3.26367H16C16.5304 3.26367 17.0391 3.47439 17.4142 3.84946C17.7893 4.22453 18 4.73324 18 5.26367V19.2637C18 19.7941 17.7893 20.3028 17.4142 20.6779C17.0391 21.053 16.5304 21.2637 16 21.2637H8C7.46957 21.2637 6.96086 21.053 6.58579 20.6779C6.21071 20.3028 6 19.7941 6 19.2637V5.26367Z" stroke="currentColor" stroke-linecap="round" stroke-linejoin="round"/>
    </symbol>
    <symbol id="clipboard-plus" viewBox="0 0 24 25" fill="none">
      <path vector-effect="non-scaling-stroke" d="M9 5.26367H7C6.46957 5.26367 5.96086 5.47439 5.58579 5.84946C5.21071 6.22453 5 6.73324 5 7.26367V19.2637C5 19.7941 5.21071 20.3028 5.58579 20.6779C5.96086 21.053 6.46957 21.2637 7 21.2637H17C17.5304 21.2637 18.0391 21.053 18.4142 20.6779C18.7893 20.3028 19 19.7941 19 19.2637V7.26367C19 6.73324 18.7893 6.22453 18.4142 5.84946C18.0391 5.47439 17.5304 5.26367 17 5.26367H15M9 5.26367C9 4.73324 9.21071 4.22453 9.58579 3.84946C9.96086 3.47439 10.4696 3.26367 11 3.26367H13C13.5304 3.26367 14.0391 3.47439 14.4142 3.84946C14.7893 4.22453 15 4.73324 15 5.26367M9 5.26367C9 5.7941 9.21071 6.30281 9.58579 6.67789C9.96086 7.05296 10.4696 7.26367 11 7.26367H13C13.5304 7.26367 14.0391 7.05296 14.4142 6.67789C14.7893 6.30281 15 5.7941 15 5.26367M10 14.2637H14M12 12.2637V16.2637" stroke="currentColor" stroke-linecap="round" stroke-linejoin="round"/>
    </symbol>
    <symbol id="aid-kit" viewBox="0 0 24 25" fill="none">
      <path vector-effect="non-scaling-stroke" d="M8 8.26367V6.26367C8 5.73324 8.21071 5.22453 8.58579 4.84946C8.96086 4.47439 9.46957 4.26367 10 4.26367H14C14.5304 4.26367 15.0391 4.47439 15.4142 4.84946C15.7893 5.22453 16 5.73324 16 6.26367V8.26367M10 14.2637H14M12 12.2637V16.2637M4 10.2637C4 9.73324 4.21071 9.22453 4.58579 8.84946C4.96086 8.47439 5.46957 8.26367 6 8.26367H18C18.5304 8.26367 19.0391 8.47439 19.4142 8.84946C19.7893 9.22453 20 9.73324 20 10.2637V18.2637C20 18.7941 19.7893 19.3028 19.4142 19.6779C19.0391 20.053 18.5304 20.2637 18 20.2637H6C5.46957 20.2637 4.96086 20.053 4.58579 19.6779C4.21071 19.3028 4 18.7941 4 18.2637V10.2637Z" stroke="currentColor" stroke-linecap="round" stroke-linejoin="round"/>
    </symbol>
    <symbol id="chevron-down" viewBox="0 0 24 25" fill="none">
      <path vector-effect="non-scaling-stroke" d="M6 9.26367L12 15.2637L18 9.26367" stroke="currentColor" stroke-width="2" stroke-linecap="round" stroke-linejoin="round"/>
    </symbol>
    <symbol id="chevron-up" viewBox="0 0 24 24" fill="none">
      <path vector-effect="non-scaling-stroke" d="M18 15L12 9L6 15" stroke="currentColor" stroke-width="2" stroke-linecap="round" stroke-linejoin="round"/>
    </symbol>
    <symbol id="tiktok" viewBox="0 0 32 33" fill="none">
      <path vector-effect="non-scaling-stroke" d="M28 11.4359V16.8145C25.5814 16.5746 23.2753 15.6747 21.3333 14.2132V20.2132C21.333 21.8414 20.874 23.4365 20.0089 24.8159C19.1439 26.1953 17.9078 27.303 16.4422 28.0123C14.9767 28.7216 13.3409 29.0038 11.7225 28.8264C10.104 28.649 8.56821 28.0193 7.29107 27.0094C6.01394 25.9995 5.04712 24.6503 4.50137 23.1163C3.95562 21.5823 3.85302 19.9256 4.20532 18.336C4.55762 16.7464 5.35057 15.2882 6.49334 14.1284C7.6361 12.9687 9.08244 12.1543 10.6667 11.7785V17.5465C10.2121 17.8875 9.85225 18.3389 9.62125 18.858C9.39025 19.3771 9.29578 19.9467 9.3468 20.5126C9.39783 21.0785 9.59266 21.6219 9.9128 22.0913C10.2329 22.5607 10.6678 22.9405 11.176 23.1946C11.6842 23.4487 12.2489 23.5687 12.8165 23.5432C13.3841 23.5176 13.9358 23.3474 14.4191 23.0487C14.9024 22.75 15.3014 22.3327 15.5781 21.8364C15.8548 21.3402 16 20.7814 16 20.2132V4.87988H21.444C21.7216 6.51775 22.5018 8.02872 23.6765 9.20338C24.8512 10.3781 26.3621 11.1583 28 11.4359Z" stroke="currentColor" stroke-linecap="round" stroke-linejoin="round"/>
    </symbol>
    <symbol id="instagram" viewBox="0 0 32 33" fill="none">
      <path vector-effect="non-scaling-stroke" d="M21.9997 10.8798V10.8931M5.33301 11.5465C5.33301 10.132 5.89491 8.77543 6.8951 7.77523C7.8953 6.77504 9.25185 6.21313 10.6663 6.21313H21.333C22.7475 6.21313 24.104 6.77504 25.1042 7.77523C26.1044 8.77543 26.6663 10.132 26.6663 11.5465V22.2131C26.6663 23.6276 26.1044 24.9842 25.1042 25.9844C24.104 26.9846 22.7475 27.5465 21.333 27.5465H10.6663C9.25185 27.5465 7.8953 26.9846 6.8951 25.9844C5.89491 24.9842 5.33301 23.6276 5.33301 22.2131V11.5465ZM11.9997 16.8798C11.9997 17.9407 12.4211 18.9581 13.1712 19.7082C13.9214 20.4584 14.9388 20.8798 15.9997 20.8798C17.0605 20.8798 18.078 20.4584 18.8281 19.7082C19.5782 18.9581 19.9997 17.9407 19.9997 16.8798C19.9997 15.8189 19.5782 14.8015 18.8281 14.0514C18.078 13.3012 17.0605 12.8798 15.9997 12.8798C14.9388 12.8798 13.9214 13.3012 13.1712 14.0514C12.4211 14.8015 11.9997 15.8189 11.9997 16.8798Z" stroke="currentColor" stroke-linecap="round" stroke-linejoin="round"/>
    </symbol>
    <symbol id="facebook" viewBox="0 0 32 33" fill="none">
      <path vector-effect="non-scaling-stroke" d="M9.33301 14.2132V19.5465H13.333V28.8799H18.6663V19.5465H22.6663L23.9997 14.2132H18.6663V11.5465C18.6663 11.1929 18.8068 10.8538 19.0569 10.6037C19.3069 10.3537 19.6461 10.2132 19.9997 10.2132H23.9997V4.87988H19.9997C18.2316 4.87988 16.5359 5.58226 15.2856 6.8325C14.0354 8.08275 13.333 9.77844 13.333 11.5465V14.2132H9.33301Z" stroke="currentColor" stroke-linecap="round" stroke-linejoin="round"/>
    </symbol>
    <symbol id="youtube" viewBox="0 0 32 33" fill="none">
      <path vector-effect="non-scaling-stroke" d="M4 12.88C4 11.4655 4.5619 10.1089 5.5621 9.10873C6.56229 8.10853 7.91885 7.54663 9.33333 7.54663H22.6667C24.0812 7.54663 25.4377 8.10853 26.4379 9.10873C27.4381 10.1089 28 11.4655 28 12.88V20.88C28 22.2945 27.4381 23.651 26.4379 24.6512C25.4377 25.6514 24.0812 26.2133 22.6667 26.2133H9.33333C7.91885 26.2133 6.56229 25.6514 5.5621 24.6512C4.5619 23.651 4 22.2945 4 20.88V12.88Z" stroke="currentColor" stroke-linecap="round" stroke-linejoin="round"/>
      <path vector-effect="non-scaling-stroke" d="M13.3333 12.88L20 16.88L13.3333 20.88V12.88Z" stroke="currentColor" stroke-linecap="round" stroke-linejoin="round"/>
    </symbol>
  </defs>
</svg>
