<svg fill="none" height="74" viewBox="0 0 308 74" width="308" xmlns="http://www.w3.org/2000/svg"><g fill="#4e9c94"><path d="m3.52996 13.7137h-2.937187v31.4649h17.572127v-2.9292h-14.63494z"/><path d="m48.6172 16.2596h10.1182v29.0024h2.9353v-29.0024h10.1164v-2.9292h-23.1699z"/><path d="m79.7596 12.8165h-2.9354v32.4454h2.9354z"/><path d="m85.1338 16.2596h10.1164v29.0024h2.9353v-29.0024h10.1185v-2.9292h-23.1702z"/><path d="m135.484 32.04c0 5.6294-4.489 10.2092-10.009 10.2092-5.519 0-10.009-4.5798-10.009-10.2092v-18.9257h-2.926v18.9257c0 7.2456 5.803 13.1383 12.939 13.1383 7.135 0 12.941-5.8927 12.941-13.1383v-18.9257h-2.936z"/><path d="m191.581 16.2596v-2.9292h-18.864v31.848h18.864v-2.9291h-15.929v-11.2516h14.051v-2.9291h-14.051v-11.809z"/><path d="m149.597 13.3286h-5.641v31.8498h5.641c4.204-.0448 8.219-1.7423 11.175-4.7239 2.957-2.9817 4.615-7.0067 4.615-11.201s-1.658-8.2193-4.615-11.2009c-2.956-2.9817-6.971-4.6792-11.175-4.724zm0 28.9207h-2.709v-25.9898h2.709c1.711 0 3.404.3362 4.984.9892 1.58.6531 3.016 1.6103 4.225 2.817 1.209 1.2066 2.168 2.6392 2.823 4.2158.654 1.5766.991 3.2664.991 4.9729s-.337 3.3963-.991 4.9729c-.655 1.5767-1.614 3.0092-2.823 4.2159s-2.645 2.1639-4.225 2.8169c-1.58.6531-3.273.9892-4.984.9892z"/><path d="m23.908 45.1784 12.7278-27.0321 13.5886 27.0321h3.2829l-16.9571-33.7365-15.8852 33.7365z"/><path d="m47.9619 60.147h-13.9355v.5024h13.9355z"/><path d="m158.147 60.147h-13.935v.5024h13.935z"/></g><path d="m71.9115 53.8672c1.516-.0007 2.9894.5012 4.1887 1.4268.0485.0363.0891.0821.1193.1346s.0494.1106.0565.1707c.0071.0602.0018.1211-.0154.1791-.0173.0581-.0461.112-.0849.1586-.0335.0494-.0769.0914-.1274.1233-.0506.0319-.1072.053-.1663.062-.0591.0089-.1195.0056-.1772-.0099-.0578-.0154-.1117-.0427-.1584-.08-1.0366-.8135-2.3162-1.2574-3.6349-1.2609-.7595-.0113-1.5137.1275-2.2192.4085-.7054.281-1.3481.6986-1.891 1.2287s-.9753 1.1622-1.2722 1.8598c-.2969.6977-.4525 1.4471-.4577 2.205.0131.7521.1746 1.4943.4752 2.1842.3006.6898.7344 1.3138 1.2768 1.8363.5423.5225 1.1825.9333 1.8839 1.2089s1.4504.4105 2.2042.3972c1.3116.0184 2.5873-.4285 3.5996-1.2609.0493-.037.1057-.0636.1656-.0781.06-.0146.1222-.0167.183-.0064.0608.0104.1189.033.1706.0665.0518.0336.0961.0773.1303.1285.0418.045.0736.0984.0934.1565.0198.0582.0271.1198.0214.181-.0057.0611-.0243.1204-.0545.1739-.0301.0535-.0713.1001-.1207.1367-1.2024.9173-2.6752 1.4119-4.1887 1.4066-1.7631.0269-3.4647-.646-4.7307-1.8707s-1.9928-2.9009-2.0206-4.6602c.0078-.8763.1888-1.7425.5325-2.549s.8434-1.5374 1.4704-2.151c.6271-.6136 1.3692-1.0978 2.184-1.4249s1.6862-.4907 2.5644-.4814z" fill="#f28a3d"/><path d="m91.6464 67.0044h-.0755c-.1113-.0089-.2151-.0593-.2907-.1413-.0757-.082-.1175-.1894-.1171-.3008v-12.0571c.0013-.1168.0484-.2285.1312-.3112.0828-.0826.1947-.1296.3118-.1309h2.4317c1.7211 0 3.3718.6823 4.5888 1.8967s1.9004 2.8615 1.9004 4.579c0 1.7174-.6834 3.3645-1.9004 4.579-1.217 1.2144-2.8677 1.8967-4.5888 1.8967zm2.3914-.9043c1.4808 0 2.9009-.587 3.948-1.6318s1.6353-2.4619 1.6353-3.9396c0-1.4776-.5882-2.8947-1.6353-3.9395-1.0471-1.0449-2.4672-1.6319-3.948-1.6319h-1.9685v11.1428z" fill="#f28a3d"/><path d="m103.573 54.4952c.001-.1152.047-.2254.128-.3077.08-.0824.19-.1305.305-.1344h6.676c.059-.0014.117.0091.171.0308.055.0218.104.0543.145.0956.042.0414.074.0906.096.1449s.032.1124.031.1708c.003.0599-.005.1199-.026.1762s-.053.1077-.095.1511c-.041.0433-.091.0777-.147.1009-.055.0232-.115.0348-.175.034h-6.203v5.1293h5.433c.12 0 .235.0476.32.1324s.133.1998.133.3197-.048.2349-.133.3197-.2.1325-.32.1325h-5.433v5.1092h6.213c.06-.0008.12.0107.175.034.056.0232.106.0575.147.1009.042.0433.074.0948.095.1511s.03.1162.026.1761c.001.0585-.009.1166-.031.1708-.022.0543-.054.1036-.096.1449-.041.0413-.09.0739-.145.0956-.054.0217-.112.0322-.171.0308h-6.686c-.112-.0077-.216-.0578-.292-.14s-.117-.1903-.116-.3021z" fill="#f28a3d"/><path d="m124.582 55.9018-4.153 5.7573c-.04.0625-.095.1139-.16.149-.066.0352-.139.0531-.213.052h-.035c-.077.0054-.154-.0105-.222-.0459-.069-.0355-.126-.0892-.166-.1551l-4.153-5.7372v10.6404c-.012.1124-.065.2164-.149.2919-.085.0756-.194.1174-.307.1174s-.222-.0418-.307-.1174c-.084-.0755-.137-.1795-.149-.2919v-11.9918c0-.0693.017-.1377.049-.1991.033-.0613.08-.1137.138-.1525 0 0 0 0 .035-.0352.1-.066.221-.0914.339-.0708.118.0205.224.0854.295.1813l4.617 6.3802 4.606-6.3802c.07-.0966.175-.1621.293-.1828.117-.0206.238.0053.337.0723.05.042.094.0911.131.1457.043.0736.069.1561.075.2411v11.9918c-.001.1169-.048.2286-.131.3112s-.195.1296-.312.1309c-.059.0014-.117-.0091-.172-.0308-.054-.0216-.104-.0541-.146-.0953-.042-.0413-.075-.0905-.097-.1448s-.034-.1125-.033-.1712z" fill="#f28a3d"/><path d="m133.785 60.7901-4.359-5.918c-.067-.1015-.094-.2235-.077-.3435.016-.12.076-.23.167-.3096.045-.0399.099-.0698.156-.0878.058-.0179.118-.0235.178-.0164s.118.0268.17.0577c.051.031.096.0725.131.1218l4.062 5.5664 4.078-5.5664c.034-.0492.079-.0906.13-.1215s.109-.0506.168-.0577c.06-.0071.12-.0016.177.0164.057.0179.11.0477.155.0875.051.0347.095.0799.128.1327s.055.1119.063.1736c.009.0616.004.1244-.013.1842-.017.0597-.047.1151-.088.1626l-4.339 5.8778v5.8125c.001.0585-.01.1166-.031.1708-.022.0543-.055.1036-.096.1449-.042.0413-.091.0739-.145.0956-.055.0217-.113.0322-.171.0308-.118-.0013-.229-.0483-.312-.1309s-.13-.1943-.132-.3112z" fill="#f28a3d"/><path d="m52.6543 67.0044 5.1503-11.198 5.095 11.198h1.0522l-5.9106-12.9865c-.0203-.045-.0532-.0831-.0947-.1099s-.0899-.0411-.1394-.0411c-.0494 0-.0978.0143-.1393.0411-.0416.0268-.0745.0649-.0948.1099l-5.9558 12.9865z" fill="#f28a3d"/><path d="m78.7231 67.0044 5.1453-11.198 5.0849 11.198h1.0522l-5.9106-12.9865c-.0203-.045-.0532-.0831-.0947-.1099s-.0899-.0411-.1394-.0411c-.0494 0-.0978.0143-.1393.0411-.0416.0268-.0745.0649-.0948.1099l-5.9558 12.9865z" fill="#f28a3d"/><path d="m233.251 22.5427 9.437-9.5192c-2.486-2.4542-5.834-3.84304-9.331-3.87085-3.497-.02782-6.866 1.30765-9.391 3.72195z" fill="#f3954a"/><path d="m239.82 26.5159 22.868-22.81889 41.571 41.48469h3.189l-44.76-44.664366-26.027 25.969466 15.876 16.445h-6.145l-13.016-13.7665-13.796 13.7665h-5.444l16.376-16.3415-11.645-11.6182-30.272 30.2096h3.188l27.084-27.0281 8.457 8.4367-18.631 18.5914h11.821l12.817-12.7877 12.087 12.7877h12.422z" fill="#4e9c94"/></svg>