<svg width="160" height="116" viewBox="0 0 160 116" fill="none"
  xmlns="http://www.w3.org/2000/svg">
  <g clip-path="url(#clip0_537_1273)">
    <path d="M18.1671 106.645H0.509766V107.283H18.1671V106.645Z" fill="#4E9C94"/>
    <path d="M157.705 106.645H140.048V107.283H157.705V106.645Z" fill="#4E9C94"/>
    <path d="M48.5099 98.6672C50.5497 98.6672 52.3983 99.3692 53.8007 100.454C54.0557 100.646 54.1194 101.092 53.8645 101.284C53.6732 101.539 53.2908 101.603 53.0358 101.411C51.7609 100.454 50.1672 99.816 48.4461 99.816C44.3664 99.816 41.0517 103.007 41.0517 107.027C41.0517 110.984 44.3664 114.175 48.4461 114.175C50.1672 114.175 51.7609 113.601 52.972 112.579C53.227 112.388 53.6095 112.452 53.8007 112.707C54.0557 112.899 53.992 113.345 53.737 113.537C52.3346 114.622 50.4222 115.324 48.4461 115.324C43.729 115.324 39.9043 111.622 39.9043 107.027C39.968 102.369 43.7927 98.6672 48.5099 98.6672Z" fill="#F28A3D"/>
    <path d="M73.498 115.324H73.4343C73.1793 115.324 72.9243 115.069 72.9243 114.749V99.4332C72.9243 99.1142 73.1793 98.8589 73.498 98.8589H73.5618H76.5578C81.0837 98.8589 84.7809 102.56 84.7809 107.091C84.7809 111.622 81.0837 115.324 76.5578 115.324H73.498ZM76.494 114.175C80.3825 114.175 83.5697 111.048 83.5697 107.091C83.5697 103.135 80.3825 100.008 76.494 100.008H74.008V114.175H76.494Z" fill="#F28A3D"/>
    <path d="M88.6055 99.4332C88.6055 99.1142 88.8604 98.8589 89.1792 98.8589H89.2429H97.6573C97.976 98.8589 98.231 99.1142 98.231 99.4332C98.231 99.7523 97.976 100.008 97.6573 100.008H89.8166V106.517H96.7011C97.0198 106.517 97.2748 106.772 97.2748 107.091C97.2748 107.41 97.0198 107.666 96.7011 107.666H89.8166V114.175H97.6573C97.976 114.175 98.231 114.43 98.231 114.749C98.231 115.069 97.976 115.324 97.6573 115.324H89.2429H89.1792H89.1154C88.8605 115.324 88.6055 115.069 88.6055 114.749V99.4332Z" fill="#F28A3D"/>
    <path d="M115.187 101.22L109.896 108.559C109.769 108.751 109.577 108.814 109.45 108.814H109.386C109.195 108.814 109.004 108.751 108.876 108.559L103.585 101.284V114.813C103.585 115.132 103.33 115.388 103.012 115.388C102.693 115.388 102.438 115.132 102.438 114.813V99.5608C102.438 99.3694 102.502 99.1779 102.693 99.1141C102.693 99.1141 102.693 99.1141 102.757 99.0503C103.012 98.8588 103.394 98.9227 103.585 99.1779L109.45 107.283L115.251 99.1779C115.442 98.9227 115.761 98.8588 116.079 99.0503C116.143 99.1141 116.207 99.1779 116.271 99.2417C116.334 99.3056 116.334 99.4332 116.334 99.5608V114.813C116.334 115.132 116.079 115.388 115.761 115.388C115.442 115.388 115.187 115.132 115.187 114.813V101.22Z" fill="#F28A3D"/>
    <path d="M126.852 107.474L121.307 99.9436C121.115 99.6883 121.179 99.3054 121.434 99.1139C121.689 98.9225 122.071 98.9225 122.263 99.1777L127.426 106.261L132.589 99.1777C132.781 98.9225 133.099 98.8586 133.418 99.1139C133.673 99.3054 133.737 99.6245 133.546 99.9436L128.063 107.474V114.877C128.063 115.196 127.808 115.451 127.49 115.451C127.171 115.451 126.916 115.196 126.916 114.877V107.474H126.852Z" fill="#F28A3D"/>
    <path d="M59.4105 30.8929L71.9682 18.1932C68.6535 14.8746 64.1276 13.0239 59.4105 13.0239C54.8208 13.0239 50.3587 14.8108 47.0439 18.0017L59.4105 30.8929Z" fill="#F28A3D"/>
    <path d="M68.2074 36.1895L98.6138 5.74844L153.881 61.0784H158.152L98.6138 1.47266L64.0002 36.1256L85.0998 58.0789H76.9405L59.6656 39.6994L41.307 58.0789H34.0401L55.8409 36.2533L40.3508 20.7456L0.0639648 61.0784H4.33488L40.3508 25.0214L51.57 36.2533L26.7731 61.0784H42.5182L59.6018 44.039L75.6656 61.0784H92.1755L68.2074 36.1895Z" fill="#4E9C94"/>
    <path d="M1.9761 68.5459H0V90.0525H11.9841V88.0741H1.9761V68.5459Z" fill="#4E9C94"/>
    <path d="M32.7012 70.2689H39.5856V90.1162H41.5617V70.2689H48.5099V68.2905H32.7012V70.2689Z" fill="#4E9C94"/>
    <path d="M53.8648 67.9714H51.8887V90.1162H53.8648V67.9714Z" fill="#4E9C94"/>
    <path d="M57.5615 70.2689H64.446V90.1162H66.4858V70.2689H73.3703V68.2905H57.5615V70.2689Z" fill="#4E9C94"/>
    <path d="M91.8568 81.0541C91.8568 84.8832 88.797 88.0102 85.0361 88.0102C81.2751 88.0102 78.2154 84.8832 78.2154 81.0541V68.0991H76.2393V81.0541C76.2393 86.0319 80.1914 90.0524 85.0361 90.0524C89.8807 90.0524 93.8329 86.0319 93.8329 81.0541V68.0991H91.8568V81.0541Z" fill="#4E9C94"/>
    <path d="M130.04 70.2689V68.2905H117.227V90.0524H130.04V88.074H119.203V80.3521H128.765V78.3737H119.203V70.2689H130.04Z" fill="#4E9C94"/>
    <path d="M101.482 68.2905H97.6572V69.3116V70.2689V88.0102V88.6484V89.9885H101.482C107.474 89.9885 112.319 85.1384 112.319 79.1395C112.319 73.1407 107.474 68.2905 101.482 68.2905ZM101.482 88.074H99.6333V70.3327H101.482C106.39 70.3327 110.342 74.2894 110.342 79.2034C110.342 84.1173 106.39 88.074 101.482 88.074Z" fill="#4E9C94"/>
    <path d="M15.8727 90.0523L24.542 71.609L33.785 90.0523H36.0161L24.4783 67.0142L13.6416 90.0523H15.8727Z" fill="#4E9C94"/>
    <path d="M158.789 68.2905H154.837L147.251 76.4592L139.665 68.2905H135.713L145.275 78.629L134.629 90.0524H138.582L147.251 80.735L155.92 90.0524H159.872L149.227 78.629L158.789 68.2905Z" fill="#F28A3D"/>
    <path d="M24.1592 115.323L30.6612 101.092L37.0994 115.323H38.4381L30.9799 98.7947C30.8524 98.5395 30.5337 98.5395 30.4062 98.7947L22.8843 115.323H24.1592Z" fill="#F28A3D"/>
    <path d="M57.1157 115.323L63.6177 101.092L70.056 115.323H71.3946L63.9364 98.7947C63.809 98.5395 63.4902 98.5395 63.3627 98.7947L55.8408 115.323H57.1157Z" fill="#F28A3D"/>
  </g>
  <defs>
    <clipPath id="clip0_537_1273">
      <rect width="160" height="114.872" fill="white" transform="translate(0 0.879883)"/>
    </clipPath>
  </defs>
</svg>
