<svg fill="none" height="116" viewBox="0 0 160 116" width="160" xmlns="http://www.w3.org/2000/svg" xmlns:xlink="http://www.w3.org/1999/xlink"><clipPath id="a"><path d="m0 .879883h160v114.872h-160z"/></clipPath><g clip-path="url(#a)"><path d="m18.1671 106.645h-17.657334v.638h17.657334z" fill="#4e9c94"/><path d="m157.705 106.645h-17.657v.638h17.657z" fill="#4e9c94"/><path d="m48.5099 98.6672c2.0398 0 3.8884.702 5.2908 1.7868.255.192.3187.638.0638.83-.1913.255-.5737.319-.8287.127-1.2749-.957-2.8686-1.595-4.5897-1.595-4.0797 0-7.3944 3.191-7.3944 7.211 0 3.957 3.3147 7.148 7.3944 7.148 1.7211 0 3.3148-.574 4.5259-1.596.255-.191.6375-.127.8287.128.255.192.1913.638-.0637.83-1.4024 1.085-3.3148 1.787-5.2909 1.787-4.7171 0-8.5418-3.702-8.5418-8.297.0637-4.658 3.8884-8.3598 8.6056-8.3598z" fill="#f28a3d"/><path d="m73.498 115.324h-.0637c-.255 0-.51-.255-.51-.575v-15.3158c0-.319.255-.5743.5737-.5743h.0638 2.996c4.5259 0 8.2231 3.7011 8.2231 8.2321s-3.6972 8.233-8.2231 8.233zm2.996-1.149c3.8885 0 7.0757-3.127 7.0757-7.084 0-3.956-3.1872-7.083-7.0757-7.083h-2.486v14.167z" fill="#f28a3d"/><path d="m88.6055 99.4332c0-.319.2549-.5743.5737-.5743h.0637 8.4144c.3187 0 .5737.2553.5737.5743 0 .3191-.255.5748-.5737.5748h-7.8407v6.509h6.8845c.3187 0 .5737.255.5737.574s-.255.575-.5737.575h-6.8845v6.509h7.8407c.3187 0 .5737.255.5737.574 0 .32-.255.575-.5737.575h-8.4144-.0637-.0638c-.2549 0-.5099-.255-.5099-.575z" fill="#f28a3d"/><path d="m115.187 101.22-5.291 7.339c-.127.192-.319.255-.446.255h-.064c-.191 0-.382-.063-.51-.255l-5.291-7.275v13.529c0 .319-.255.575-.573.575-.319 0-.574-.256-.574-.575v-15.2522c0-.1914.064-.3829.255-.4467 0 0 0 0 .064-.0638.255-.1915.637-.1276.828.1276l5.865 8.1051 5.801-8.1051c.191-.2552.51-.3191.828-.1276.064.0638.128.1276.192.1914.063.0639.063.1915.063.3191v15.2522c0 .319-.255.575-.573.575-.319 0-.574-.256-.574-.575z" fill="#f28a3d"/><path d="m126.852 107.474-5.545-7.5304c-.192-.2553-.128-.6382.127-.8297.255-.1914.637-.1914.829.0638l5.163 7.0833 5.163-7.0833c.192-.2552.51-.3191.829-.0638.255.1915.319.5106.128.8297l-5.483 7.5304v7.403c0 .319-.255.574-.573.574-.319 0-.574-.255-.574-.574v-7.403z" fill="#f28a3d"/><path d="m59.4105 30.8929 12.5577-12.6997c-3.3147-3.3186-7.8406-5.1693-12.5577-5.1693-4.5897 0-9.0518 1.7869-12.3666 4.9778z" fill="#f28a3d"/><g fill="#4e9c94"><path d="m68.2074 36.1895 30.4064-30.44106 55.2672 55.32996h4.271l-59.5382-59.60574-34.6136 34.65294 21.0996 21.9533h-8.1593l-17.2749-18.3795-18.3586 18.3795h-7.2669l21.8008-21.8256-15.4901-15.5077-40.2868352 40.3328h4.2709152l36.01592-36.057 11.2192 11.2319-24.7969 24.8251h15.7451l17.0836-17.0394 16.0638 17.0394h16.5099z"/><path d="m1.9761 68.5459h-1.9761v21.5066h11.9841v-1.9784h-10.008z"/><path d="m32.7012 70.2689h6.8844v19.8473h1.9761v-19.8473h6.9482v-1.9784h-15.8087z"/><path d="m53.8648 67.9714h-1.9761v22.1448h1.9761z"/><path d="m57.5615 70.2689h6.8845v19.8473h2.0398v-19.8473h6.8845v-1.9784h-15.8088z"/><path d="m91.8568 81.0541c0 3.8291-3.0598 6.9561-6.8207 6.9561-3.761 0-6.8207-3.127-6.8207-6.9561v-12.955h-1.9761v12.955c0 4.9778 3.9521 8.9983 8.7968 8.9983 4.8446 0 8.7968-4.0205 8.7968-8.9983v-12.955h-1.9761z"/><path d="m130.04 70.2689v-1.9784h-12.813v21.7619h12.813v-1.9784h-10.837v-7.7219h9.562v-1.9784h-9.562v-8.1048z"/><path d="m101.482 68.2905h-3.8248v1.0211.9573 17.7413.6382 1.3401h3.8248c5.992 0 10.837-4.8501 10.837-10.849 0-5.9988-4.845-10.849-10.837-10.849zm0 19.7835h-1.8487v-17.7413h1.8487c4.908 0 8.86 3.9567 8.86 8.8707 0 4.9139-3.952 8.8706-8.86 8.8706z"/><path d="m15.8727 90.0523 8.6693-18.4433 9.243 18.4433h2.2311l-11.5378-23.0381-10.8367 23.0381z"/></g><path d="m158.789 68.2905h-3.952l-7.586 8.1687-7.586-8.1687h-3.952l9.562 10.3385-10.646 11.4234h3.953l8.669-9.3174 8.669 9.3174h3.952l-10.645-11.4234z" fill="#f28a3d"/><path d="m24.1592 115.323 6.502-14.231 6.4382 14.231h1.3387l-7.4582-16.5283c-.1275-.2552-.4462-.2552-.5737 0l-7.5219 16.5283z" fill="#f28a3d"/><path d="m57.1157 115.323 6.502-14.231 6.4383 14.231h1.3386l-7.4582-16.5283c-.1274-.2552-.4462-.2552-.5737 0l-7.5219 16.5283z" fill="#f28a3d"/></g></svg>