<svg fill="none" height="38" viewBox="0 0 251 38" width="251" xmlns="http://www.w3.org/2000/svg" xmlns:xlink="http://www.w3.org/1999/xlink"><clipPath id="a"><path d="m0 .844482h250.478v36.311h-250.478z"/></clipPath><g clip-path="url(#a)"><g fill="#4e9c94"><path d="m3.28132 3.41467h-3.126779v33.58433h18.713559v-3.1268h-15.58678z"/><path d="m51.3027 6.13117h10.779v30.95513h3.1234v-30.95513h10.779v-3.12678h-24.6814z"/><path d="m84.4735 2.45642h-3.1268v34.62988h3.1268z"/><path d="m90.1992 6.13117h10.7718v30.95513h3.127v-30.95513h10.776v-3.12678h-24.6748z"/><path d="m143.825 22.9755c0 6.0082-4.781 10.8967-10.655 10.8967-5.873 0-10.657-4.8885-10.657-10.8967v-20.19962h-3.127v20.19962c0 7.7329 6.183 14.0235 13.784 14.0235 7.602 0 13.785-6.2906 13.785-14.0235v-20.19962h-3.127z"/><path d="m203.573 6.13117v-3.12678h-20.092v33.99451h20.092v-3.1268h-16.965v-12.0095h14.965v-3.1268h-14.965v-12.60463z"/><path d="m158.864 3.00432h-6.018v33.98438h6.018c2.252.0317 4.488-.3846 6.578-1.2245 2.09-.84 3.992-2.087 5.596-3.6685 1.604-1.5814 2.878-3.4659 3.747-5.5439.869-2.0779 1.317-4.3079 1.317-6.5603 0-2.2525-.448-4.4825-1.317-6.5604-.869-2.078-2.143-3.96242-3.747-5.54391-1.604-1.58148-3.506-2.82843-5.596-3.66841s-4.326-1.25622-6.578-1.22455zm0 30.86768h-2.892v-27.7409h2.892c1.84-.02864 3.667.30896 5.374.99316 1.708.6842 3.263 1.70133 4.574 2.99214 1.311 1.2908 2.353 2.8296 3.063 4.5267.711 1.6971 1.077 3.5186 1.077 5.3585 0 1.8398-.366 3.6613-1.077 5.3584-.71 1.6971-1.752 3.2359-3.063 4.5267s-2.866 2.3079-4.574 2.9921c-1.707.6842-3.534 1.0218-5.374.9932z"/><path d="m24.9873 36.9988 13.5561-28.85377 14.4706 28.85377h3.4966l-18.058-36.011739-16.9216 36.011739z"/></g><path d="m248.505 3.00439h-6.163l-11.878 12.78281-11.882-12.78281h-6.163l14.962 16.10121-16.63 17.8933h6.163l13.55-14.5782 13.546 14.5782h6.162l-16.629-17.8933z" fill="#f3954a"/></g></svg>